# xmcd
#
# Track frame offsets: 
#        150
#        3159
#        18221
#        35171
#        54028
#        73025
#        88598
#        104569
#        121222
#        137551
#        154142
#        171248
#        187433
#        200970
#
# Disc length: 2731 seconds
#
# Revision: 0
# Processed by: cddbd v1.5.2PL0 Copyright (c) Steve Scherf et al.
# Submitted via: ExactAudioCopyFreeDBPlugin 1.0
#
DISCID=c30aa90e
DTITLE=Brad Johner - The Collection
DYEAR=2014
DGENRE=Country
TTITLE0=One Hot August Night
TTITLE1=The Perfect Life
TTITLE2=My Brother and me
TTITLE3=Maybe She'll Change Her Mind
TTITLE4=See Jane Run
TTITLE5=When Heaven Opens Up
TTITLE6=Hellow
TTITLE7=She Looks a Lot Like You
TTITLE8=head Over Heels
TTITLE9=Free
TTITLE10=The Last Saskatchewan Pirate
TTITLE11=The Farmer's Back
TTITLE12=Still in Love with You
TTITLE13=Still in Love with You (reprise(
EXTD=
EXTT0=
EXTT1=
EXTT2=
EXTT3=
EXTT4=
EXTT5=
EXTT6=
EXTT7=
EXTT8=
EXTT9=
EXTT10=
EXTT11=
EXTT12=
EXTT13=
PLAYORDER=
